name rise44.8762peak52.3436fall86.788.mot
datacolumns 19
datarows 27
range 20.60658700000000 20.64991700000000
endheader
time	ground_force1_vx	ground_force1_vy	ground_force1_vz	ground_force1_px	ground_force1_py	ground_force1_pz	ground_force2_vx	ground_force2_vy	ground_force2_vz	ground_force2_px	ground_force2_py	ground_force2_pz	ground_torque1_x	ground_torque1_y	ground_torque1_z	ground_torque2_x	ground_torque2_y	ground_torque2_z	
20.60658700000000	-1.10494200000000	686.51667399999997	52.89261100000000	0.13808900000000	0.00000000000000	0.15596500000000	0.00000000000000	0.00000000000000	0.00000000000000	0.00000000000000	0.00000000000000	0.00000000000000	0.00000000000000	15.62572500000000	0.00000000000000	0.00000000000000	0.00000000000000	0.00000000000000	
20.60825000000000	-1.57459800000000	687.95830799999999	52.93107600000000	0.13702600000000	0.00000000000000	0.15592500000000	0.00000000000000	0.00000000000000	0.00000000000000	0.00000000000000	0.00000000000000	0.00000000000000	0.00000000000000	15.72520600000000	0.00000000000000	0.00000000000000	0.00000000000000	0.00000000000000	
20.60992200000000	-2.05507700000000	689.45292700000005	52.97397200000000	0.13594900000000	0.00000000000000	0.15588500000000	0.00000000000000	0.00000000000000	0.00000000000000	0.00000000000000	0.00000000000000	0.00000000000000	0.00000000000000	15.82940000000000	0.00000000000000	0.00000000000000	0.00000000000000	0.00000000000000	
20.61159000000000	-2.54603300000000	690.99900700000001	53.02103100000000	0.13486000000000	0.00000000000000	0.15584500000000	0.00000000000000	0.00000000000000	0.00000000000000	0.00000000000000	0.00000000000000	0.00000000000000	0.00000000000000	15.93815300000000	0.00000000000000	0.00000000000000	0.00000000000000	0.00000000000000	
20.61325000000000	-3.04708400000000	692.59502399999997	53.07199300000000	0.13376100000000	0.00000000000000	0.15580500000000	0.00000000000000	0.00000000000000	0.00000000000000	0.00000000000000	0.00000000000000	0.00000000000000	0.00000000000000	16.05130300000000	0.00000000000000	0.00000000000000	0.00000000000000	0.00000000000000	
20.61491800000000	-3.55780800000000	694.23945900000001	53.12661900000000	0.13265200000000	0.00000000000000	0.15576600000000	0.00000000000000	0.00000000000000	0.00000000000000	0.00000000000000	0.00000000000000	0.00000000000000	0.00000000000000	16.16868200000000	0.00000000000000	0.00000000000000	0.00000000000000	0.00000000000000	
20.61658200000000	-4.07774900000000	695.93079000000000	53.18468100000000	0.13153600000000	0.00000000000000	0.15572600000000	0.00000000000000	0.00000000000000	0.00000000000000	0.00000000000000	0.00000000000000	0.00000000000000	0.00000000000000	16.29011300000000	0.00000000000000	0.00000000000000	0.00000000000000	0.00000000000000	
20.61825300000000	-4.60642000000000	697.66749200000004	53.24596800000000	0.13041400000000	0.00000000000000	0.15568600000000	0.00000000000000	0.00000000000000	0.00000000000000	0.00000000000000	0.00000000000000	0.00000000000000	0.00000000000000	16.41541600000000	0.00000000000000	0.00000000000000	0.00000000000000	0.00000000000000	
20.61992400000000	-5.14330400000000	699.44803400000001	53.31028700000000	0.12928800000000	0.00000000000000	0.15564600000000	0.00000000000000	0.00000000000000	0.00000000000000	0.00000000000000	0.00000000000000	0.00000000000000	0.00000000000000	16.54440400000000	0.00000000000000	0.00000000000000	0.00000000000000	0.00000000000000	
20.62158500000000	-5.68785700000000	701.27087700000004	53.37745900000000	0.12816000000000	0.00000000000000	0.15560600000000	0.00000000000000	0.00000000000000	0.00000000000000	0.00000000000000	0.00000000000000	0.00000000000000	0.00000000000000	16.67688200000000	0.00000000000000	0.00000000000000	0.00000000000000	0.00000000000000	
20.62325000000000	-6.23951300000000	703.13446599999997	53.44732300000000	0.12703000000000	0.00000000000000	0.15556600000000	0.00000000000000	0.00000000000000	0.00000000000000	0.00000000000000	0.00000000000000	0.00000000000000	0.00000000000000	16.81265300000000	0.00000000000000	0.00000000000000	0.00000000000000	0.00000000000000	
20.62491700000000	-6.79768300000000	705.03723600000001	53.51973400000000	0.12590200000000	0.00000000000000	0.15552500000000	0.00000000000000	0.00000000000000	0.00000000000000	0.00000000000000	0.00000000000000	0.00000000000000	0.00000000000000	16.95151200000000	0.00000000000000	0.00000000000000	0.00000000000000	0.00000000000000	
20.62658400000000	-7.36176300000000	706.97759900000005	53.59456400000000	0.12477500000000	0.00000000000000	0.15548300000000	0.00000000000000	0.00000000000000	0.00000000000000	0.00000000000000	0.00000000000000	0.00000000000000	0.00000000000000	17.09325000000000	0.00000000000000	0.00000000000000	0.00000000000000	0.00000000000000	
20.62825500000000	-7.93113400000000	708.95394799999997	53.67170100000000	0.12365300000000	0.00000000000000	0.15544200000000	0.00000000000000	0.00000000000000	0.00000000000000	0.00000000000000	0.00000000000000	0.00000000000000	0.00000000000000	17.23765400000000	0.00000000000000	0.00000000000000	0.00000000000000	0.00000000000000	
20.62992300000000	-8.50516300000000	710.96465100000000	53.75104800000000	0.12253500000000	0.00000000000000	0.15539900000000	0.00000000000000	0.00000000000000	0.00000000000000	0.00000000000000	0.00000000000000	0.00000000000000	0.00000000000000	17.38450700000000	0.00000000000000	0.00000000000000	0.00000000000000	0.00000000000000	
20.63158400000000	-9.08321300000000	713.00804500000004	53.83252800000000	0.12142500000000	0.00000000000000	0.15535600000000	0.00000000000000	0.00000000000000	0.00000000000000	0.00000000000000	0.00000000000000	0.00000000000000	0.00000000000000	17.53358700000000	0.00000000000000	0.00000000000000	0.00000000000000	0.00000000000000	
20.63325100000000	-9.66463900000000	715.08243900000002	53.91607400000000	0.12032300000000	0.00000000000000	0.15531300000000	0.00000000000000	0.00000000000000	0.00000000000000	0.00000000000000	0.00000000000000	0.00000000000000	0.00000000000000	17.68467000000000	0.00000000000000	0.00000000000000	0.00000000000000	0.00000000000000	
20.63491900000000	-10.24879300000000	717.18610500000000	54.00164000000000	0.11923000000000	0.00000000000000	0.15526800000000	0.00000000000000	0.00000000000000	0.00000000000000	0.00000000000000	0.00000000000000	0.00000000000000	0.00000000000000	17.83752600000000	0.00000000000000	0.00000000000000	0.00000000000000	0.00000000000000	
20.63659000000000	-10.83503000000000	719.31727899999998	54.08918900000000	0.11814900000000	0.00000000000000	0.15522400000000	0.00000000000000	0.00000000000000	0.00000000000000	0.00000000000000	0.00000000000000	0.00000000000000	0.00000000000000	17.99192700000000	0.00000000000000	0.00000000000000	0.00000000000000	0.00000000000000	
20.63825800000000	-11.42270700000000	721.47415500000000	54.17870300000000	0.11707900000000	0.00000000000000	0.15517800000000	0.00000000000000	0.00000000000000	0.00000000000000	0.00000000000000	0.00000000000000	0.00000000000000	0.00000000000000	18.14764000000000	0.00000000000000	0.00000000000000	0.00000000000000	0.00000000000000	
20.63991700000000	-12.01118700000000	723.65488700000003	54.27017300000000	0.11602200000000	0.00000000000000	0.15513200000000	0.00000000000000	0.00000000000000	0.00000000000000	0.00000000000000	0.00000000000000	0.00000000000000	0.00000000000000	18.30443100000000	0.00000000000000	0.00000000000000	0.00000000000000	0.00000000000000	
20.64158200000000	-12.59984400000000	725.85758199999998	54.36360600000000	0.11498000000000	0.00000000000000	0.15508500000000	0.00000000000000	0.00000000000000	0.00000000000000	0.00000000000000	0.00000000000000	0.00000000000000	0.00000000000000	18.46206400000000	0.00000000000000	0.00000000000000	0.00000000000000	0.00000000000000	
20.64325800000000	-13.18806100000000	728.08030099999996	54.45902000000000	0.11395200000000	0.00000000000000	0.15503800000000	0.00000000000000	0.00000000000000	0.00000000000000	0.00000000000000	0.00000000000000	0.00000000000000	0.00000000000000	18.62030400000000	0.00000000000000	0.00000000000000	0.00000000000000	0.00000000000000	
20.64491900000000	-13.77523700000000	730.32105500000000	54.55644200000000	0.11294000000000	0.00000000000000	0.15499000000000	0.00000000000000	0.00000000000000	0.00000000000000	0.00000000000000	0.00000000000000	0.00000000000000	0.00000000000000	18.77891600000000	0.00000000000000	0.00000000000000	0.00000000000000	0.00000000000000	
20.64658200000000	-14.36078600000000	732.57780900000000	54.65591100000000	0.11194400000000	0.00000000000000	0.15494100000000	0.00000000000000	0.00000000000000	0.00000000000000	0.00000000000000	0.00000000000000	0.00000000000000	0.00000000000000	18.93766300000000	0.00000000000000	0.00000000000000	0.00000000000000	0.00000000000000	
20.64825700000000	-14.94414100000000	734.84847200000002	54.75747600000000	0.11096500000000	0.00000000000000	0.15489200000000	0.00000000000000	0.00000000000000	0.00000000000000	0.00000000000000	0.00000000000000	0.00000000000000	0.00000000000000	19.09631000000000	0.00000000000000	0.00000000000000	0.00000000000000	0.00000000000000	
20.64991700000000	-15.52475400000000	737.13090599999998	54.86119300000000	0.11000400000000	0.00000000000000	0.15484200000000	0.00000000000000	0.00000000000000	0.00000000000000	0.00000000000000	0.00000000000000	0.00000000000000	0.00000000000000	19.25462400000000	0.00000000000000	0.00000000000000	0.00000000000000	0.00000000000000	
